PathFileType	4	(X/Y/Z)	 s11c0001.trc
DataRate	CameraRate	NumFrames	NumMarkers	Units	OrigDataRate	OrigDataStartFrame	OrigNumFrames
200	200	4	49	mm	200	1	2000
Frame#	Time	racr			lacr			c7			jug			rlel			rdr			llel			ldr			s2			lic			ric			lasi			rasi			rpsi			lpsi			rgt			lgt			rth1			rth2			rth3			rth4			rlfc			rmfc			rsh1			rsh2			rsh3			rsh4			rlmal			rmmal			rcal			rtoe			rmt5			rmt1			lth1			lth2			lth4			lth3			llfc			lmfc			llmal			lmmal			lcal			lmt1			lmt5			lsh1			lsh2			lsh3			lsh4			ltoe			
		X1	Y1	Z1	X2	Y2	Z2	X3	Y3	Z3	X4	Y4	Z4	X5	Y5	Z5	X6	Y6	Z6	X7	Y7	Z7	X8	Y8	Z8	X9	Y9	Z9	X10	Y10	Z10	X11	Y11	Z11	X12	Y12	Z12	X13	Y13	Z13	X14	Y14	Z14	X15	Y15	Z15	X16	Y16	Z16	X17	Y17	Z17	X18	Y18	Z18	X19	Y19	Z19	X20	Y20	Z20	X21	Y21	Z21	X22	Y22	Z22	X23	Y23	Z23	X24	Y24	Z24	X25	Y25	Z25	X26	Y26	Z26	X27	Y27	Z27	X28	Y28	Z28	X29	Y29	Z29	X30	Y30	Z30	X31	Y31	Z31	X32	Y32	Z32	X33	Y33	Z33	X34	Y34	Z34	X35	Y35	Z35	X36	Y36	Z36	X37	Y37	Z37	X38	Y38	Z38	X39	Y39	Z39	X40	Y40	Z40	X41	Y41	Z41	X42	Y42	Z42	X43	Y43	Z43	X44	Y44	Z44	X45	Y45	Z45	X46	Y46	Z46	X47	Y47	Z47	X48	Y48	Z48	X49	Y49	Z49	
1	0.0050	485.165019	1571.108355	595.697803	458.406449	1597.609363	182.169223	390.221236	1618.665627	389.108947	554.469161	1562.680547	371.609928	491.643671	1313.889578	747.594442	627.404267	1090.537248	893.665748	434.565946	1302.640308	49.516985	566.291582	1065.849046	-126.022318	346.652524	1075.993074	394.175581	517.812346	1164.096260	177.902300	559.407638	1152.113508	567.731830	583.092099	1110.034705	207.146067	614.742461	1112.489409	522.373706	368.482523	1130.504897	449.175590	355.653635	1127.844171	345.997268	511.696019	960.803534	589.722016	448.294809	992.527459	175.018213	520.662144	833.241961	586.690816	540.272193	750.165612	561.048436	515.817135	668.458889	542.832923	574.117379	752.777467	548.497480	510.264159	562.664555	517.119708	504.511304	546.068545	397.377212	464.274886	413.932956	539.162735	478.313980	327.424681	525.054380	448.853388	245.212136	524.997903	505.087015	327.363635	496.023354	431.609005	108.841899	513.341156	462.890890	122.862936	425.888535	386.522781	80.337032	459.258183	667.330482	91.556469	518.877151	584.530105	51.541330	571.550169	609.695278	59.089390	458.290303	476.267408	859.191145	154.876332	495.399454	776.009121	168.175351	531.507095	775.577888	175.112921	468.503873	692.555325	183.483685	462.152105	550.722330	213.544946	475.937747	540.460389	339.678666	405.991518	117.610317	223.553870	436.810528	133.974604	297.575833	369.150653	68.660929	259.892482	592.798665	56.250660	291.955447	569.587765	55.269489	174.945125	424.425749	427.990845	192.599057	442.828203	344.107657	199.366329	416.230203	259.640887	202.411190	474.537007	344.382432	221.620501	660.232570	95.551366	243.882545	
2	0.0100	485.219375	1571.093865	595.666396	458.390279	1597.589382	182.148361	390.247872	1618.680164	389.090371	554.509068	1562.676548	371.557066	491.682692	1313.891465	747.579414	627.425140	1090.516725	893.598903	434.535081	1302.610517	49.544640	566.219246	1065.831559	-126.025319	346.650087	1075.996671	394.164874	517.795575	1164.095340	177.915792	559.375647	1152.134529	567.746616	583.107402	1110.051750	207.151794	614.735150	1112.493429	522.409333	368.480023	1130.517531	449.175331	355.662039	1127.828728	345.997713	511.705862	960.804412	589.726937	448.335237	992.524858	175.007610	520.660605	833.251472	586.697097	540.298268	750.198728	561.059203	515.846942	668.463699	542.838964	574.137264	752.765033	548.493008	510.116738	562.863662	517.163075	504.524969	546.061022	397.369146	464.330403	413.982246	539.186282	478.342519	327.418983	525.043881	448.845214	245.217473	525.004337	505.086435	327.300359	495.983317	431.616363	108.848205	513.334119	462.909225	122.853916	425.886535	386.546825	80.318240	459.266121	667.328177	91.562248	518.871657	584.482765	51.489194	571.551715	609.702924	59.098868	458.281097	476.370035	859.190154	154.870104	495.488736	776.008213	168.176424	531.580558	775.585936	175.099255	468.577123	692.580121	183.467316	462.196373	550.702776	213.533366	475.970104	540.457806	339.690039	406.015954	117.615308	223.556144	436.816306	133.979435	297.582212	369.154517	68.668732	259.885853	592.795496	56.261653	291.962089	569.601526	55.259099	174.943692	424.512877	428.026997	192.622491	442.860441	344.127901	199.381345	416.258122	259.609128	202.428108	474.602184	344.342049	221.665259	660.212881	95.551745	243.874758	
3	0.0150	485.291376	1571.085601	595.630671	458.405856	1597.581367	182.126189	390.266042	1618.656029	389.117754	554.531115	1562.663535	371.550376	491.721714	1313.886947	747.551714	627.450576	1090.476309	893.561373	434.494109	1302.594347	49.578143	566.163430	1065.806158	-126.030467	346.669588	1075.980187	394.152001	517.797698	1164.092407	177.916320	559.355874	1152.123405	567.767314	583.143495	1110.048054	207.152681	614.721083	1112.490018	522.426009	368.483580	1130.496850	449.149114	355.686548	1127.817900	345.976841	511.697405	960.805154	589.731812	448.388062	992.512679	174.992115	520.669991	833.243595	586.706708	540.300804	750.170018	561.058322	515.857215	668.460229	542.824417	574.155429	752.771406	548.507963	510.130432	562.860209	517.169033	504.602286	546.076902	397.372425	464.331810	413.969772	539.184239	478.353577	327.415047	525.050541	448.854213	245.219092	525.010687	505.121683	327.359895	496.020336	431.632713	108.855195	513.343457	462.874775	122.841442	425.890584	386.529114	80.350950	459.276385	667.311252	91.531595	518.869397	584.449782	51.538630	571.544546	609.701405	59.097493	458.295503	476.430915	859.188949	154.881550	495.571960	776.011605	168.184783	531.673861	775.590887	175.125407	468.657818	692.577884	183.477675	462.273681	550.712727	213.529349	476.076084	540.483456	339.692362	406.005537	117.620462	223.563423	436.831886	133.977170	297.572924	369.154622	68.664676	259.890832	592.796003	56.246065	291.961062	569.594077	55.256395	174.945077	424.540774	428.019013	192.611631	442.897644	344.127469	199.372183	416.761075	259.575258	202.752389	474.602224	344.325967	221.663258	660.224896	95.536033	243.884770	
4	0.0200	485.325752	1571.063002	595.590060	458.409691	1597.566059	182.127255	390.298752	1618.629739	389.074823	554.556128	1562.652018	371.517479	492.160394	1314.148863	747.524757	627.476453	1090.451325	893.530804	434.461238	1302.558769	49.613111	566.080824	1065.763719	-126.019915	346.655382	1075.976789	394.155415	517.807528	1164.072723	177.925597	558.896695	1152.030702	567.486216	583.192768	1110.049831	207.150033	614.852029	1112.451955	522.100100	368.459027	1130.493620	449.166805	355.687550	1127.784490	345.986026	511.693397	960.801643	589.740194	448.427141	992.512757	174.989629	520.659429	833.250578	586.712919	540.338698	750.192760	561.059379	515.863981	668.452797	542.836097	574.171782	752.771255	548.526663	510.358379	562.672541	517.125859	504.623928	546.035782	397.393888	464.367177	413.976337	539.179607	478.780980	327.873169	524.955564	448.902560	245.276909	525.014425	505.107752	327.291053	495.963156	431.374923	109.026341	513.361643	463.143423	123.042923	425.902713	386.528652	80.335858	459.256003	667.336630	91.571993	518.861132	591.004163	54.807028	573.534929	609.689045	59.080164	458.283103	476.573915	859.221398	154.870579	495.576631	776.928040	169.828287	531.784287	775.509698	175.519619	468.748660	692.574061	183.484907	462.315984	550.718413	213.545743	476.101003	540.477838	339.702099	406.015276	117.624959	223.551261	436.811114	133.963886	297.569948	369.155739	68.668689	259.893939	592.803523	56.259057	291.950618	569.583247	55.263558	174.958052	424.582936	428.032914	192.616216	442.948612	344.124874	199.390256	416.810665	259.582157	202.756848	474.587501	344.432175	221.599813	660.213624	95.548147	243.877559	
